<?xml version="1.0" encoding="UTF-8"?>
<svg version="1.1" xmlns="http://www.w3.org/2000/svg" width="512" height="512">
<path d="M0 0 C168.96 0 337.92 0 512 0 C512 168.96 512 337.92 512 512 C343.04 512 174.08 512 0 512 C0 343.04 0 174.08 0 0 Z " fill="#000000" transform="translate(0,0)"/>
<path d="M0 0 C106.59 0 213.18 0 323 0 C321.51193612 3.72015971 320.17585437 6.53821456 318.0859375 9.859375 C317.4978833 10.7975708 316.9098291 11.7357666 316.30395508 12.70239258 C315.6673999 13.70810303 315.03084473 14.71381348 314.375 15.75 C313.71201904 16.80405029 313.04903809 17.85810059 312.3659668 18.9440918 C306.22077307 28.69579251 300.0020629 38.40051399 293.77734375 48.1015625 C290.45465428 53.28318687 287.15678522 58.47989327 283.875 63.6875 C276.69109613 75.08643089 269.44810244 86.447608 262.20898438 97.81152344 C256.12395361 107.36468922 250.04299925 116.9201754 244 126.5 C236.77132674 137.95944572 229.4884348 149.38429455 222.20898438 160.81152344 C216.12395361 170.36468922 210.04299925 179.9201754 204 189.5 C196.77132674 200.95944572 189.4884348 212.38429455 182.20898438 223.81152344 C175.63334136 234.13492365 169.06803747 244.46445981 162.53857422 254.81713867 C158.11531987 261.82659946 153.66392023 268.81799422 149.2109375 275.80859375 C145.46109288 281.6976669 141.72441582 287.59481615 138 293.5 C130.77141965 304.95950384 123.48843444 316.38429513 116.20898438 327.81152344 C110.12395361 337.36468922 104.04299925 346.9201754 98 356.5 C90.77132674 367.95944572 83.4884348 379.38429455 76.20898438 390.81152344 C70.12395361 400.36468922 64.04299925 409.9201754 58 419.5 C50.77132674 430.95944572 43.4884348 442.38429455 36.20898438 453.81152344 C34.43070063 456.60333175 32.65274034 459.39534563 30.875 462.1875 C30.29468018 463.09886719 29.71436035 464.01023437 29.11645508 464.94921875 C25.83613626 470.10407131 22.56730504 475.265933 19.31030273 480.43554688 C14.83627672 487.5356475 10.34601467 494.62520734 5.8125 501.6875 C5.34239502 502.42524658 4.87229004 503.16299316 4.38793945 503.9230957 C3.28573249 505.63317527 2.14684891 507.31953283 1 509 C0.67 509 0.34 509 0 509 C0 341.03 0 173.06 0 0 Z " fill="#FEFEFE" transform="translate(0,0)"/>
<path d="M0 0 C79.53 0 159.06 0 241 0 C241 96.36 241 192.72 241 292 C214.6 292 188.2 292 161 292 C160.67 226.33 160.34 160.66 160 93 C107.2 92.67 54.4 92.34 0 92 C0 61.64 0 31.28 0 0 Z " fill="#FEFEFE" transform="translate(271,220)"/>
<path d="M0 0 C67.65 0 135.3 0 205 0 C203.43289779 3.91775553 201.98061257 6.8111896 199.7265625 10.2890625 C199.07284668 11.30315186 198.41913086 12.31724121 197.74560547 13.36206055 C196.69590576 14.97721558 196.69590576 14.97721558 195.625 16.625 C194.52773199 18.32407007 193.43202721 20.02414183 192.33633423 21.72422791 C191.60130215 22.86441412 190.86576681 24.00427606 190.12973022 25.14381409 C187.01228872 29.97143276 183.93535849 34.82356604 180.875 39.6875 C173.69199276 51.08699097 166.44809862 62.447614 159.20898438 73.81152344 C152.63334136 84.13492365 146.06803747 94.46445981 139.53857422 104.81713867 C135.11531987 111.82659946 130.66392023 118.81799422 126.2109375 125.80859375 C122.46109288 131.6976669 118.72441582 137.59481615 115 143.5 C107.77141965 154.95950384 100.48843444 166.38429513 93.20898438 177.81152344 C86.63334136 188.13492365 80.06803747 198.46445981 73.53857422 208.81713867 C69.11531987 215.82659946 64.66392023 222.81799422 60.2109375 229.80859375 C56.46109288 235.6976669 52.72441582 241.59481615 49 247.5 C41.77141965 258.95950384 34.48843444 270.38429513 27.20898438 281.81152344 C26.01961356 283.67877063 24.83040401 285.54612055 23.64135742 287.41357422 C22.47271669 289.24883283 21.30361573 291.08379847 20.1340332 292.91845703 C17.25757526 297.43458969 14.39525622 301.95874876 11.55859375 306.5 C11.01154785 307.37374268 10.46450195 308.24748535 9.90087891 309.14770508 C8.86976797 310.79643657 7.84190308 312.44720424 6.81787109 314.1003418 C6.12878662 315.20116089 6.12878662 315.20116089 5.42578125 316.32421875 C5.02786377 316.96447998 4.62994629 317.60474121 4.2199707 318.2644043 C3 320 3 320 0 323 C0 216.41 0 109.82 0 0 Z " fill="#000000" transform="translate(0,0)"/>
</svg>
